<?xml version="1.0" encoding="UTF-8"?>
<svg version="1.1" xmlns="http://www.w3.org/2000/svg" width="1024" height="1024">
<path d="M0 0 C337.92 0 675.84 0 1024 0 C1024 337.92 1024 675.84 1024 1024 C686.08 1024 348.16 1024 0 1024 C0 686.08 0 348.16 0 0 Z " fill="#EBEBEB" transform="translate(0,0)"/>
<path d="M0 0 C-1.37773984 9.26867208 -13.7383293 17.8355389 -20.125 24.125 C-25.42445987 29.34452835 -30.60115866 34.5747624 -35.44482422 40.22216797 C-37.68119639 42.77872404 -40.06951496 45.12670285 -42.5 47.5 C-46.30869334 51.25149794 -49.91966876 55.10589769 -53.390625 59.171875 C-55.56250365 61.63896046 -57.90208204 63.91278303 -60.24609375 66.21484375 C-62.66426194 68.67609734 -64.89833503 71.27908347 -67.12890625 73.91015625 C-69.63856223 76.71321669 -72.33959392 79.33959392 -75 82 C-58.17 82.33 -41.34 82.66 -24 83 C-24 88.18009257 -24.19961671 88.77360046 -27.59188843 92.22509766 C-28.1216629 92.7384668 -28.65143738 93.25183594 -29.19726562 93.78076172 C-30.02655075 94.61355148 -30.02655075 94.61355148 -30.87258911 95.46316528 C-32.7053839 97.29757604 -34.55539573 99.1135141 -36.40625 100.9296875 C-37.68847833 102.20512261 -38.96967314 103.48159752 -40.24987793 104.75906372 C-43.62891714 108.1246763 -47.02312683 111.47459377 -50.42028809 114.82189941 C-53.17311667 117.53950368 -55.91491966 120.2680788 -58.65616608 122.99735832 C-61.94402699 126.27033426 -65.23699056 129.53815317 -68.53125 132.8046875 C-69.15216019 133.42068691 -69.77307037 134.03668633 -70.41279602 134.67135239 C-82.35018052 146.49825143 -82.35018052 146.49825143 -88.38171387 151.59085083 C-90.1735748 153.1511431 -91.83657579 154.804127 -93.5 156.5 C-95.83025445 158.87224102 -98.22104406 161.09113517 -100.75 163.25 C-105.09830248 166.9915626 -109.08946661 171.05547786 -113.09375 175.15625 C-115.20775581 177.27621916 -117.41379266 179.24025013 -119.6875 181.1875 C-124.88982228 185.69224932 -129.67129307 190.60201463 -134.5 195.5 C-139.87830543 200.95546907 -145.24980823 206.30454105 -151.06982422 211.28808594 C-154.65911179 214.47150163 -157.9602675 217.9460106 -161.3125 221.375 C-167.57129914 227.70975045 -173.88927816 233.61959591 -181 239 C-181.71542969 239.56976562 -182.43085938 240.13953125 -183.16796875 240.7265625 C-185 242 -185 242 -187 242 C-186.60471658 236.04251424 -183.92968952 232.31592541 -180.625 227.5625 C-179.81144043 226.3700769 -179.81144043 226.3700769 -178.98144531 225.15356445 C-170.76842643 213.18920017 -162.00810977 201.65144904 -153.19555664 190.12548828 C-148.48745836 183.96630572 -143.82604064 177.77418334 -139.1875 171.5625 C-134.06086489 164.70393849 -128.84990056 157.92440293 -123.53515625 151.2109375 C-120.2123294 147.0127491 -116.94978405 142.76903134 -113.703125 138.51171875 C-111.66209466 135.84238037 -109.57908003 133.20943172 -107.484375 130.58203125 C-106.28123721 129.05469757 -105.0781121 127.52735391 -103.875 126 C-103.00319092 124.92238403 -103.00319092 124.92238403 -102.11376953 123.82299805 C-98.97610481 119.86648895 -98.97610481 119.86648895 -97.5078125 115.125 C-97.84930631 112.79781647 -97.84930631 112.79781647 -100 111 C-104.50170859 110.36549429 -106.45169641 110.62875963 -110.25390625 113.203125 C-111.37204656 114.2019076 -112.47427693 115.21870229 -113.5625 116.25 C-114.78480162 117.35195599 -116.00746876 118.45350665 -117.23046875 119.5546875 C-117.85099121 120.12413086 -118.47151367 120.69357422 -119.11083984 121.28027344 C-124.28493801 125.99032093 -129.65543057 130.48545179 -135 135 C-135.79535156 135.67675781 -136.59070313 136.35351562 -137.41015625 137.05078125 C-141.44167623 140.30551511 -144.60143108 142.48201508 -150 142 C-156.79718357 138.19473911 -161.35215364 130.97199433 -166 124.89453125 C-169.14858688 120.77980551 -172.40949683 116.76193408 -175.6875 112.75 C-176.78272617 111.40639189 -177.87778289 110.06264562 -178.97265625 108.71875 C-179.48844238 108.08582031 -180.00422852 107.45289063 -180.53564453 106.80078125 C-183.71691957 102.88862975 -186.88198448 98.96279805 -190 95 C-190.55558594 94.34515625 -191.11117187 93.6903125 -191.68359375 93.015625 C-193.95232739 89.54183699 -193.63764838 85.99446397 -193 82 C-191.5 79.4375 -191.5 79.4375 -189 78 C-184.91180492 77.25049757 -182.5781631 76.97958129 -179.0546875 79.2578125 C-176.94669046 81.09270871 -174.97793174 83.02569084 -173 85 C-171.34073414 86.50818255 -169.67377427 88.00793517 -168 89.5 C-167.15824219 90.25925781 -166.31648438 91.01851562 -165.44921875 91.80078125 C-162.613692 94.34687624 -159.76021016 96.86971784 -156.875 99.359375 C-155.60413191 100.47138458 -154.35440261 101.60793755 -153.125 102.765625 C-152.526875 103.31734375 -151.92875 103.8690625 -151.3125 104.4375 C-150.79300781 104.93121094 -150.27351563 105.42492187 -149.73828125 105.93359375 C-147.34109014 107.40423009 -145.7809454 107.25194493 -143 107 C-140.97839963 105.89641988 -140.97839963 105.89641988 -139.1796875 104.25390625 C-138.13844727 103.37605469 -138.13844727 103.37605469 -137.07617188 102.48046875 C-136.34978516 101.84753906 -135.62339844 101.21460938 -134.875 100.5625 C-133.34124335 99.26160377 -131.80738935 97.9608223 -130.2734375 96.66015625 C-129.53448242 96.02609863 -128.79552734 95.39204102 -128.03417969 94.73876953 C-125.55456089 92.619249 -123.0337962 90.554324 -120.5 88.5 C-115.8233019 84.67879546 -111.16074852 80.84062334 -106.5 77 C-100.01096715 71.65312222 -93.51113431 66.31995005 -87 61 C-86.15824219 60.31035156 -85.31648438 59.62070312 -84.44921875 58.91015625 C-80.38912769 55.58388906 -76.32673324 52.26105366 -72.2421875 48.96484375 C-65.02502681 43.13468581 -57.88713325 37.23602452 -50.86791992 31.16870117 C-46.8651951 27.71657326 -42.78155901 24.39312074 -38.6171875 21.13671875 C-36.58251336 19.47557434 -34.63637656 17.78509123 -32.6953125 16.01953125 C-25.59112819 9.60329185 -19.3008549 4.91169196 -10 2 C-8.91332031 1.63841797 -8.91332031 1.63841797 -7.8046875 1.26953125 C-5.09592549 0.4251682 -2.85136717 0 0 0 Z " fill="#014687" transform="translate(387,422)"/>
<path d="M0 0 C1.16765396 -0.0071553 2.33530792 -0.01431061 3.53834534 -0.02168274 C4.82095245 -0.02437164 6.10355957 -0.02706055 7.42503357 -0.02983093 C8.78854546 -0.03609714 10.15205564 -0.04274408 11.51556396 -0.04974365 C15.99636142 -0.07077613 20.47715917 -0.08114852 24.95799255 -0.09111023 C26.50276647 -0.09515875 28.04754021 -0.0992757 29.59231377 -0.10346031 C36.85385006 -0.12251393 44.1153762 -0.13674194 51.37693268 -0.14507228 C59.74502724 -0.15483145 68.11285634 -0.1811155 76.48085743 -0.22157317 C82.95660671 -0.25180154 89.43228021 -0.26654769 95.90809864 -0.26985329 C99.77170304 -0.27219707 103.63502394 -0.28106842 107.49855232 -0.30631447 C111.13890131 -0.3297169 114.77878263 -0.33378018 118.41918755 -0.32355309 C120.37820843 -0.32282717 122.3372062 -0.34183473 124.29612732 -0.36161804 C134.17047518 -0.30387332 142.51826626 1.5691291 149.9228363 8.43232727 C154.27869693 13.51802625 156.52118643 19.62231732 156.50511169 26.26118469 C156.50503616 27.3020372 156.50496063 28.34288971 156.50488281 29.4152832 C156.49972153 30.53723587 156.49456024 31.65918854 156.48924255 32.81513977 C156.48712013 34.54006401 156.48712013 34.54006401 156.48495483 36.29983521 C156.47935059 39.9781401 156.46679734 43.65638447 156.4540863 47.33467102 C156.44907185 49.8262066 156.44450885 52.31774313 156.44041443 54.8092804 C156.42937978 60.92193131 156.41263749 67.03454684 156.3915863 73.14717102 C154.26875961 74.15177633 152.14325609 75.15072704 150.0165863 76.14717102 C148.83322693 76.70404602 147.64986755 77.26092102 146.4306488 77.83467102 C143.3915863 79.14717102 143.3915863 79.14717102 141.3915863 79.14717102 C141.38572006 78.45670181 141.37985382 77.7662326 141.37380981 77.05484009 C141.3098755 69.86830592 141.22545508 62.68221954 141.12913513 55.49604797 C141.09423619 52.81410501 141.0665976 50.13223301 141.04515076 47.45014954 C141.01161484 43.59494669 140.95929703 39.74038627 140.90330505 35.88545227 C140.89372017 34.08676445 140.89372017 34.08676445 140.88394165 32.2517395 C140.86414749 31.13095505 140.84435333 30.01017059 140.82395935 28.85542297 C140.81285629 27.87169205 140.80175323 26.88796112 140.79031372 25.87442017 C140.32137277 22.6669186 139.28362961 20.75881409 137.3915863 18.14717102 C134.754556 16.82865587 132.77941874 17.01222498 129.8250885 17 C128.64172409 16.9928447 127.45835968 16.98568939 126.23913574 16.97831726 C124.93415634 16.97562836 123.62917694 16.97293945 122.28465271 16.97016907 C120.90170114 16.96390525 119.51875125 16.95725852 118.13580322 16.95025635 C114.37338224 16.93284092 110.61097397 16.92229345 106.84852266 16.91405082 C104.49898717 16.90890256 102.14945564 16.9028268 99.79992294 16.89653969 C92.45189794 16.87748741 85.103883 16.86325549 77.75583804 16.85492772 C69.2676845 16.84514946 60.77979133 16.81881498 52.29172957 16.77842683 C45.73456619 16.74829448 39.17747758 16.73346166 32.62024629 16.73014671 C28.70204714 16.72779321 24.78412615 16.71879414 20.86600113 16.69368553 C17.18054269 16.67044937 13.49554642 16.66615322 9.8100338 16.67644691 C7.81168038 16.67718036 5.81335067 16.65805847 3.81509399 16.63838196 C2.62608994 16.64532578 1.43708588 16.65226959 0.21205139 16.65942383 C-1.33819512 16.6558413 -1.33819512 16.6558413 -2.91975975 16.65218639 C-6.34982396 17.2836656 -7.52685202 18.38904476 -9.6084137 21.14717102 C-10.01261949 24.15663364 -10.17264708 26.80430841 -10.15431213 29.81513977 C-10.16463565 30.6967896 -10.17495916 31.57843943 -10.18559551 32.48680592 C-10.21524933 35.43627464 -10.21649331 38.38506375 -10.2177887 41.33467102 C-10.23304925 43.43320984 -10.250019 45.53173684 -10.26858521 47.63024902 C-10.31344666 53.29356874 -10.33335597 58.95672014 -10.34764481 64.62018967 C-10.36558792 70.49684334 -10.40281122 76.37337856 -10.43727112 82.24995422 C-10.49063888 91.84929785 -10.5284327 101.44860325 -10.55714417 111.04804993 C-10.58786389 121.15567166 -10.64659676 131.26272447 -10.72804451 141.37005806 C-10.79154993 149.26917178 -10.84149365 157.1682652 -10.87841606 165.06754875 C-10.89993722 169.64539231 -10.92700791 174.2230246 -10.96839905 178.80073547 C-11.00616298 183.06270099 -11.02456135 187.32430782 -11.0276165 191.58643532 C-11.03194083 193.1336397 -11.04309783 194.68084283 -11.06169319 196.22794151 C-11.08586483 198.32540132 -11.08528892 200.42144283 -11.0783844 202.51899719 C-11.08425064 203.68645981 -11.09011688 204.85392242 -11.09616089 206.0567627 C-10.50104863 209.82744535 -9.2919007 211.47597871 -6.6084137 214.14717102 C-3.20031815 215.28320287 -0.52844919 215.30666055 3.06614685 215.35249329 C3.7395813 215.36239288 4.41301575 215.37229248 5.1068573 215.38249207 C7.33063757 215.41405491 9.5544392 215.43884377 11.77830505 215.46357727 C13.32102002 215.48415131 14.86372941 215.5051479 16.40643311 215.52655029 C20.46536233 215.58172452 24.52434203 215.63115427 28.58335876 215.67939758 C32.72586048 215.72964656 36.86828896 215.78531489 41.01072693 215.8405304 C49.13761811 215.94805511 57.2645706 216.04951268 65.3915863 216.14717102 C64.28947726 217.89846759 63.18481199 219.64815566 62.0790863 221.39717102 C61.46420349 222.37170227 60.84932068 223.34623352 60.21580505 224.35029602 C59.31281677 225.73474915 59.31281677 225.73474915 58.3915863 227.14717102 C57.94101364 227.91443512 57.49044098 228.68169922 57.0262146 229.47221375 C55.3915863 231.14717102 55.3915863 231.14717102 52.7578125 231.66856384 C51.16996193 231.68238602 51.16996193 231.68238602 49.55003357 231.69648743 C48.34770584 231.71555145 47.14537811 231.73461548 45.90661621 231.7542572 C44.6035704 231.75243439 43.3005246 231.75061157 41.95799255 231.74873352 C40.60096719 231.75651492 39.24394667 231.7651858 37.88693237 231.77470398 C35.03619157 231.78963969 32.18594575 231.78904501 29.33518982 231.77851868 C25.71369227 231.7670177 22.0942703 231.80055944 18.47311497 231.84720802 C15.66482034 231.87697076 12.85700656 231.87838645 10.04858208 231.87218857 C8.07465441 231.87369226 6.10080062 231.90125453 4.1270752 231.92955017 C-4.56979257 231.8415172 -11.40241857 230.19462872 -18.6084137 225.14717102 C-24.63403391 218.38139512 -26.91503493 211.31865613 -26.87583923 202.31103516 C-26.88037035 201.5404673 -26.88490146 200.76989945 -26.88956988 199.97598106 C-26.9021919 197.40366961 -26.90059494 194.83157048 -26.89894104 192.25923157 C-26.90492767 190.41090117 -26.91173353 188.56257328 -26.91929626 186.71424866 C-26.93694992 181.69968338 -26.94165139 176.68518637 -26.94292784 171.67059302 C-26.94435037 168.53570647 -26.94862192 165.40083722 -26.95392227 162.26595497 C-26.97242057 151.32376124 -26.98059315 140.3816162 -26.97901917 129.43940735 C-26.97781788 119.24878481 -26.9989183 109.05837412 -27.03050649 98.86780518 C-27.0566808 90.11091801 -27.06738597 81.35409997 -27.06610835 72.59717399 C-27.06559905 67.3705 -27.07126461 62.14401431 -27.09246445 56.91737938 C-27.11186616 51.99988569 -27.11195801 47.08275954 -27.09743118 42.16525269 C-27.09534438 40.36457086 -27.10003629 38.56386592 -27.1121521 36.76322365 C-27.1860265 25.01973092 -26.56800596 15.69302794 -18.32325745 6.65107727 C-13.10304129 2.07298338 -6.84202294 0.02876027 0 0 Z " fill="#034787" transform="translate(183.60841369628906,361.8528289794922)"/>
<path d="M0 0 C57.60757946 0 57.60757946 0 66.23828125 7.16015625 C71.60274902 12.76251616 73.30440906 18.51870534 73.5 26.1875 C73.1564545 34.75756756 70.80750543 39.75693166 65 46 C63.515 46.99 63.515 46.99 62 48 C62.53109375 48.37511719 63.0621875 48.75023437 63.609375 49.13671875 C70.31400827 53.99390745 75.08201962 58.6381575 77 67 C78.10612391 76.78186688 76.2639564 84.05679667 70.25 91.8125 C64.96430025 97.56419343 57.09339269 100.66073537 49.36442566 101.17555237 C46.22163595 101.23074297 43.0845323 101.2248998 39.94140625 101.1953125 C38.92622925 101.19329834 37.91105225 101.19128418 36.8651123 101.18920898 C33.09752846 101.17879857 29.33000937 101.15087622 25.5625 101.125 C17.126875 101.08375 8.69125 101.0425 0 101 C0 67.67 0 34.34 0 0 Z " fill="#014586" transform="translate(402,453)"/>
<path d="M0 0 C6.6 0 13.2 0 20 0 C21.96393147 5.89179442 23.70801918 11.5165679 25.04296875 17.53515625 C25.21629227 18.29928329 25.38961578 19.06341034 25.56819153 19.85069275 C26.11223641 22.25368723 26.64998094 24.65803835 27.1875 27.0625 C27.55882591 28.70777689 27.9305672 30.35296008 28.30273438 31.99804688 C29.2066185 35.99763316 30.1048615 39.99844771 31 44 C32.74203159 41.38695262 33.4373333 39.92563238 34.22094727 37.00341797 C34.43779678 36.20604218 34.6546463 35.40866638 34.87806702 34.58712769 C35.10521896 33.73079742 35.33237091 32.87446716 35.56640625 31.9921875 C35.80536118 31.11096222 36.0443161 30.22973694 36.29051208 29.32180786 C37.05304851 26.50758109 37.80831825 23.69147627 38.5625 20.875 C39.3209875 18.05159443 40.08106178 15.2286506 40.84519958 12.4067688 C41.32057375 10.65044406 41.79254941 8.89319542 42.26087952 7.13497925 C43.8878721 1.1121279 43.8878721 1.1121279 45 0 C46.41570123 -0.08651611 47.835595 -0.10704904 49.25390625 -0.09765625 C50.53491211 -0.09282227 50.53491211 -0.09282227 51.84179688 -0.08789062 C52.73962891 -0.07951172 53.63746094 -0.07113281 54.5625 -0.0625 C55.46419922 -0.05798828 56.36589844 -0.05347656 57.29492188 -0.04882812 C59.53001314 -0.03700225 61.76497437 -0.0205222 64 0 C66.01609561 6.88727754 68.02497239 13.77662622 70.02880859 20.66748047 C70.94830799 23.82262545 71.87413836 26.9758535 72.80078125 30.12890625 C73.34664808 32.00251856 73.89223468 33.87621255 74.4375 35.75 C74.82542725 37.06037231 74.82542725 37.06037231 75.22119141 38.3972168 C75.45628418 39.209729 75.69137695 40.02224121 75.93359375 40.859375 C76.2438147 41.91850098 76.2438147 41.91850098 76.56030273 42.99902344 C77 45 77 45 77 49 C77.66 49 78.32 49 79 49 C78.96011963 48.04335449 78.92023926 47.08670898 78.87915039 46.10107422 C78.88454798 41.38180711 79.89765732 36.96852687 80.93359375 32.3828125 C81.22968285 31.0361702 81.22968285 31.0361702 81.53175354 29.662323 C81.94778149 27.77736534 82.36735258 25.89318654 82.7902832 24.00976562 C83.43971868 21.11511095 84.0771528 18.21800304 84.71289062 15.3203125 C85.11909322 13.48682429 85.52597021 11.65348533 85.93359375 9.8203125 C86.12529648 8.95060822 86.31699921 8.08090393 86.51451111 7.18484497 C87.88394585 1.11605415 87.88394585 1.11605415 89 0 C90.56172745 -0.08685603 92.12729344 -0.10702219 93.69140625 -0.09765625 C94.63564453 -0.09443359 95.57988281 -0.09121094 96.55273438 -0.08789062 C97.54595703 -0.07951172 98.53917969 -0.07113281 99.5625 -0.0625 C100.55958984 -0.05798828 101.55667969 -0.05347656 102.58398438 -0.04882812 C105.05604849 -0.03700007 107.52799518 -0.02051849 110 0 C106.37956375 14.69298601 102.56718013 29.33668339 98.77191162 43.98522949 C97.89302678 47.37804771 97.01490897 50.77106444 96.13671875 54.1640625 C94.42521253 60.7762317 92.71281072 67.3881686 91 74 C83.08 74 75.16 74 67 74 C66.39671875 71.75703125 65.7934375 69.5140625 65.171875 67.203125 C64.57359781 64.98854008 63.97411003 62.77428614 63.37451172 60.56005859 C62.96407078 59.04184432 62.55485401 57.52329846 62.14697266 56.00439453 C59.701416 46.90115539 57.12198199 37.9008783 54 29 C52.76907116 33.31809374 51.54248793 37.63739339 50.31958008 41.95776367 C49.90469985 43.42130215 49.48872014 44.88452949 49.0715332 46.34741211 C46.45623072 55.52142744 44.06374966 64.68307193 42 74 C34.41 74 26.82 74 19 74 C15.62970216 63.88910648 15.62970216 63.88910648 14.81762695 60.30737305 C14.63169479 59.50322464 14.44576263 58.69907623 14.25419617 57.87055969 C14.06331924 57.03026718 13.87244232 56.18997467 13.67578125 55.32421875 C11.92442602 47.79724883 10.07709888 40.3043838 8.10546875 32.83203125 C7.74535202 31.46665726 7.74535202 31.46665726 7.37796021 30.07369995 C6.6496523 27.31947351 5.91899944 24.56588041 5.1875 21.8125 C4.19901807 18.09057907 3.21377343 14.36782286 2.23046875 10.64453125 C2.00554245 9.80203323 1.78061615 8.95953522 1.5488739 8.09150696 C0 2.22553541 0 2.22553541 0 0 Z " fill="#024586" transform="translate(674,480)"/>
<path d="M0 0 C0.98613281 -0.02449219 1.97226562 -0.04898437 2.98828125 -0.07421875 C13.88953412 -0.11730671 21.67256127 3.30220405 29.54296875 10.80078125 C34.15419679 16.17918705 37.136399 22.21373854 36.75 29.375 C32.46702469 30.43119003 28.32014354 30.49202092 23.9375 30.4375 C23.24462891 30.43298828 22.55175781 30.42847656 21.83789062 30.42382812 C20.14188932 30.41213156 18.44593297 30.39419924 16.75 30.375 C16.45609375 29.57835937 16.45609375 29.57835937 16.15625 28.765625 C14.05889776 23.81153437 12.04725938 21.1016947 7.03125 18.99609375 C1.46257507 17.47996479 -3.45264375 17.60470446 -8.75 19.875 C-9.575 20.37 -10.4 20.865 -11.25 21.375 C-11.91 21.375 -12.57 21.375 -13.25 21.375 C-14.68013287 29.18043577 -14.68013287 29.18043577 -12.25 36.375 C-8.40883637 38.12161607 -4.37858856 39.36588528 -0.375 40.6875 C0.27412354 40.9040625 0.92324707 41.120625 1.59204102 41.34375 C4.98066359 42.47233949 8.37486835 43.57531547 11.78515625 44.63671875 C22.01609331 47.85425778 30.61509638 51.15310666 36.75 60.375 C40.16941226 67.17869358 39.78744966 76.07939763 38.02734375 83.3671875 C34.88186855 91.74663155 29.89849499 97.53239868 21.75 101.375 C8.35327159 106.43418747 -7.16460811 106.09763051 -20.25 100.375 C-28.51365336 96.21790221 -34.69093296 89.74444434 -38.1875 81.125 C-39.25 77.375 -39.25 77.375 -39.25 72.375 C-28.855 71.88 -28.855 71.88 -18.25 71.375 C-17.26 73.685 -16.27 75.995 -15.25 78.375 C-11.28806899 83.06676041 -8.00921874 85.1290974 -1.875 85.67578125 C-0.67875 85.67964844 0.5175 85.68351563 1.75 85.6875 C2.94625 85.70425781 4.1425 85.72101563 5.375 85.73828125 C9.02604858 85.34528644 10.85158323 84.58504279 13.75 82.375 C15.74788088 79.37817868 16.10935228 78.43414854 16.25 75 C16.3015625 74.24976563 16.353125 73.49953125 16.40625 72.7265625 C15.36754311 69.00452948 12.96701465 67.23599874 9.75 65.375 C6.13082579 63.98367847 2.43160627 62.99695317 -1.3125 62 C-26.39169777 54.80550372 -26.39169777 54.80550372 -33.25 43.375 C-36.69042392 35.58747003 -37.5302178 28.41302964 -34.6875 20.375 C-30.6370193 11.12284935 -23.84304084 5.25122672 -14.70703125 1.265625 C-9.78992059 -0.00115605 -5.05813959 0.00650983 0 0 Z " fill="#024586" transform="translate(631.25,451.625)"/>
<path d="M0 0 C0.68578125 -0.00322266 1.3715625 -0.00644531 2.078125 -0.00976562 C6.67270202 0.0384599 9.4717791 0.80309303 14 2.3125 C13.67 7.2625 13.34 12.2125 13 17.3125 C11.06125 17.27125 9.1225 17.23 7.125 17.1875 C3.89883083 17.06910449 3.89883083 17.06910449 1 17.3125 C-1.39763185 19.71013185 -1.34280586 20.64523498 -1.625 23.9375 C-1.810625 26.103125 -1.810625 26.103125 -2 28.3125 C2.95 28.3125 7.9 28.3125 13 28.3125 C13 33.5925 13 38.8725 13 44.3125 C7.72 44.3125 2.44 44.3125 -3 44.3125 C-3 63.4525 -3 82.5925 -3 102.3125 C-9.6 102.3125 -16.2 102.3125 -23 102.3125 C-23 83.5025 -23 64.6925 -23 45.3125 C-26.63 45.3125 -30.26 45.3125 -34 45.3125 C-34 39.7025 -34 34.0925 -34 28.3125 C-30.04 28.3125 -26.08 28.3125 -22 28.3125 C-22.061875 26.683125 -22.12375 25.05375 -22.1875 23.375 C-22.1695771 16.41195204 -21.10311251 10.92718041 -16.6875 5.4375 C-11.29397158 1.17284962 -6.81568018 -0.16014286 0 0 Z " fill="#044687" transform="translate(855,451.6875)"/>
<path d="M0 0 C6.6 0 13.2 0 20 0 C20 5.94 20 11.88 20 18 C25.28 18 30.56 18 36 18 C36 23.28 36 28.56 36 34 C30.72 34 25.44 34 20 34 C20.02808386 39.19806703 20.07110048 44.39150741 20.15258789 49.58837891 C20.17576746 51.35553754 20.19016354 53.1228343 20.19555664 54.89013672 C20.20484702 57.43284173 20.24583481 59.9733744 20.29296875 62.515625 C20.2890361 63.30430969 20.28510345 64.09299438 20.28105164 64.90557861 C20.38530824 68.83563289 20.63205699 70.61432117 23.390625 73.50585938 C26.19754361 75.11311442 27.62305841 75.44041442 30.8125 75.25 C32.194375 75.1675 33.57625 75.085 35 75 C35.66 80.28 36.32 85.56 37 91 C29.41035303 92.89741174 18.57781302 93.7711595 11.25 90.375 C4.64050222 86.13131798 1.8332562 80.37377605 0 73 C-0.35250246 69.92236801 -0.35402468 66.90302735 -0.29296875 63.80859375 C-0.28872391 62.97787857 -0.28447906 62.14716339 -0.28010559 61.29127502 C-0.26349314 58.67300118 -0.2258763 56.05553585 -0.1875 53.4375 C-0.17243053 51.64779768 -0.15874612 49.85808313 -0.14648438 48.06835938 C-0.1136472 43.71193446 -0.06198936 39.35610365 0 35 C-3.63 35 -7.26 35 -11 35 C-11 29.39 -11 23.78 -11 18 C-7.37 18 -3.74 18 0 18 C0 12.06 0 6.12 0 0 Z " fill="#044787" transform="translate(885,462)"/>
<path d="M0 0 C6.27 0 12.54 0 19 0 C19 33.66 19 67.32 19 102 C12.73 102 6.46 102 0 102 C0 68.34 0 34.68 0 0 Z " fill="#004284" transform="translate(561,452)"/>
<path d="M0 0 C6.27 0 12.54 0 19 0 C19 33.66 19 67.32 19 102 C12.73 102 6.46 102 0 102 C0 68.34 0 34.68 0 0 Z " fill="#004284" transform="translate(526,452)"/>
<path d="M0 0 C0.92235443 -0.00700928 1.84470886 -0.01401855 2.79501343 -0.02124023 C5.84338495 -0.03884377 8.89082805 -0.02718991 11.93920898 -0.01367188 C14.05623045 -0.01636587 16.17325072 -0.02024752 18.29026794 -0.02526855 C22.72634669 -0.03116662 27.16210323 -0.02258968 31.59814453 -0.00390625 C37.29044733 0.01889717 42.98199637 0.00575303 48.67427158 -0.01819611 C53.04511724 -0.03263375 57.41578346 -0.02805764 61.78663445 -0.01768494 C63.88584418 -0.01501275 65.9850701 -0.01830461 68.08426094 -0.02760315 C71.01494795 -0.03773668 73.94440488 -0.02231296 76.875 0 C77.74625015 -0.00809692 78.61750031 -0.01619385 79.51515198 -0.02453613 C85.3581997 0.05808448 85.3581997 0.05808448 87.90391541 2.33117676 C89.36391836 5.62583482 89.38040068 7.96439247 88.87280273 11.51757812 C86.10298003 14.57824161 83.88792811 15.75701374 79.85046387 16.0255127 C78.24414909 16.0491861 76.63741773 16.05092067 75.03100586 16.03515625 C73.71059547 16.04567017 73.71059547 16.04567017 72.36351013 16.05639648 C69.46003472 16.07397041 66.55753769 16.06235586 63.65405273 16.04882812 C61.63293267 16.05152321 59.61181387 16.05540577 57.59069824 16.0604248 C53.35729615 16.06631904 49.12423193 16.05775917 44.89086914 16.0390625 C39.46669877 16.01627315 34.0433201 16.02939661 28.61917877 16.05335236 C24.44641158 16.06781225 20.27383182 16.06320343 16.10105896 16.05284119 C14.10119025 16.05017444 12.10130447 16.05344183 10.10145569 16.0627594 C7.30537901 16.07292802 4.51058114 16.05741957 1.71459961 16.03515625 C0.47697121 16.04730164 0.47697121 16.04730164 -0.78565979 16.05969238 C-4.69591749 16.00206412 -6.69656217 15.77911374 -10.11340332 13.70397949 C-12.90228852 10.67605182 -13.19996072 8.59233158 -13.12719727 4.51757812 C-9.78073428 -0.58666582 -5.54442101 -0.05164682 0 0 Z " fill="#054888" transform="translate(201.127197265625,406.482421875)"/>
<path d="M0 0 C6.6 0 13.2 0 20 0 C20 24.42 20 48.84 20 74 C13.4 74 6.8 74 0 74 C0 49.58 0 25.16 0 0 Z " fill="#014586" transform="translate(490,480)"/>
<path d="M0 0 C6.27 0 12.54 0 19 0 C19 24.42 19 48.84 19 74 C12.73 74 6.46 74 0 74 C0 49.58 0 25.16 0 0 Z " fill="#004385" transform="translate(792,480)"/>
<path d="M0 0 C0.6461879 -0.00861557 1.29237579 -0.01723114 1.95814514 -0.02610779 C4.0825366 -0.04870988 6.20560281 -0.04204138 8.33007812 -0.03295898 C9.81311432 -0.03819688 11.29614717 -0.04447397 12.7791748 -0.05174255 C15.88272818 -0.06213576 18.98582274 -0.05760087 22.08935547 -0.04296875 C26.06096813 -0.02577386 30.03113499 -0.04928819 34.00258636 -0.08445835 C37.06363457 -0.10644761 40.12433752 -0.10498753 43.18544006 -0.09669304 C44.64943529 -0.09587449 46.11345611 -0.1027196 47.57737732 -0.11746407 C49.62670084 -0.13494294 51.67343557 -0.12034748 53.72265625 -0.09765625 C55.46875183 -0.09621361 55.46875183 -0.09621361 57.25012207 -0.09474182 C61.31951961 0.72691739 62.83770964 2.29802339 65.36132812 5.53344727 C65.48632812 9.09594727 65.48632812 9.09594727 64.36132812 12.53344727 C61.71364864 15.20143069 60.06221724 16.41771177 56.3260498 17.03465271 C55.19751587 17.03481888 54.06898193 17.03498505 52.90625 17.03515625 C51.62141724 17.0445372 50.33658447 17.05391815 49.01281738 17.06358337 C47.61856416 17.05310471 46.22431739 17.04173565 44.83007812 17.02954102 C43.39188565 17.0296961 41.95369276 17.03118661 40.51550293 17.03395081 C37.50607758 17.03533303 34.49712985 17.02280728 31.48779297 17 C27.63753951 16.97161525 23.78807919 16.97435474 19.93776703 16.98709011 C16.96939362 16.99405762 14.00120232 16.98624591 11.03285217 16.97383308 C9.61353759 16.96932895 8.19420339 16.9689727 6.77488708 16.97289848 C4.78869391 16.97582087 2.8025048 16.95710724 0.81640625 16.9375 C-0.87639465 16.92939552 -0.87639465 16.92939552 -2.60339355 16.92112732 C-6.00431275 16.48674589 -7.89956536 15.56297931 -10.63867188 13.53344727 C-12.20297435 10.40484231 -11.99494471 7.97741802 -11.63867188 4.53344727 C-7.93276263 0.67866766 -5.25712989 0.02799394 0 0 Z " fill="#054989" transform="translate(200.638671875,442.466552734375)"/>
<path d="M0 0 C4.54266205 -0.13501968 9.081306 -0.23416045 13.625 -0.3125 C14.91019531 -0.35439453 16.19539063 -0.39628906 17.51953125 -0.43945312 C28.18587651 -0.57761822 28.18587651 -0.57761822 31.7734375 2.26953125 C35.05526383 6.2940867 36.39747578 8.62976955 36.0625 13.875 C36.01802734 15.10863281 36.01802734 15.10863281 35.97265625 16.3671875 C34.39392542 20.64053921 32.1053056 23.00041347 28 25 C23.1623478 25.71857654 18.43930998 25.56701978 13.5625 25.375 C12.25861328 25.34792969 10.95472656 25.32085938 9.61132812 25.29296875 C6.40683791 25.22254039 3.20320281 25.11493219 0 25 C0 16.75 0 8.5 0 0 Z " fill="#ECECEC" transform="translate(422,511)"/>
<path d="M0 0 C3.465 -0.0825 6.93 -0.165 10.5 -0.25 C12.11358398 -0.30462402 12.11358398 -0.30462402 13.75976562 -0.36035156 C19.98750659 -0.4315914 24.87512151 0.26127296 30 4 C32.70215757 7.5209932 33.22270888 10.23763725 33 14.5625 C32.30231455 19.06712125 30.69710714 21.22716964 27 24 C23.42677602 25.70480093 20.64428645 26.24145364 16.69921875 26.1953125 C15.37796997 26.18781982 15.37796997 26.18781982 14.0300293 26.18017578 C12.37547729 26.15286377 12.37547729 26.15286377 10.6875 26.125 C5.3971875 26.063125 5.3971875 26.063125 0 26 C0 17.42 0 8.84 0 0 Z " fill="#ECECEC" transform="translate(422,469)"/>
<path d="M0 0 C0.33 0 0.66 0 1 0 C2.05223788 22.24269002 2.05223788 22.24269002 -4 30 C-4.76183594 30.99193359 -4.76183594 30.99193359 -5.5390625 32.00390625 C-10.46040165 37.58997605 -16.75945932 40.5726307 -24.15405273 41.31787109 C-27.4867655 41.39154133 -30.7931337 41.35073084 -34.125 41.25 C-35.27226562 41.23195313 -36.41953125 41.21390625 -37.6015625 41.1953125 C-40.40194424 41.14863947 -43.20050563 41.08318498 -46 41 C-45.5980542 40.46818115 -45.1961084 39.9363623 -44.78198242 39.38842773 C-44.24935791 38.68145752 -43.7167334 37.9744873 -43.16796875 37.24609375 C-42.64227295 36.5492749 -42.11657715 35.85245605 -41.57495117 35.13452148 C-40.54091548 33.73309936 -39.53162075 32.31301221 -38.55053711 30.87402344 C-36.45589379 27.80909474 -35.07025575 26.22257531 -31.3515625 25.44921875 C-28.4375 25.25 -28.4375 25.25 -25.68359375 25.265625 C-22.34485719 24.93515326 -20.67545237 24.01096093 -18 22 C-16.04932183 19.68296252 -16.04932183 19.68296252 -14.3125 17 C-10.02036444 10.8648673 -5.27415893 5.31528298 0 0 Z " fill="#044485" transform="translate(339,552)"/>
<path d="M0 0 C2.25218526 1.84269703 2.99546542 3.01030062 4.0625 5.6875 C4.27698131 8.81122777 3.93061611 11.67950531 3.0625 14.6875 C-0.55423568 18.49459019 -3.54114732 19.57304486 -8.75 20 C-13.1154473 19.94372352 -15.59600427 18.5516392 -18.9375 15.6875 C-21.30394083 11.92018952 -21.13691288 9.10609072 -20.55078125 4.8125 C-19.60768594 1.54470478 -17.81839782 0.33372732 -14.9375 -1.3125 C-9.86682663 -3.00272446 -4.83730113 -2.16134731 0 0 Z " fill="#044486" transform="translate(508.9375,451.3125)"/>
<path d="M0 0 C4.05902667 1.5611641 7.06099411 3.01426566 9 7 C9.51614464 11.64530178 9.67880761 13.84351295 7.3125 17.875 C3.80507942 21.09803513 1.28532123 21.88315262 -3.4375 22.3125 C-7.35748875 21.96864134 -9.6819269 21.08344125 -13 19 C-15.81172128 14.78241808 -15.9318711 10.95155239 -15 6 C-11.09329171 0.69119089 -6.26874305 -0.4179162 0 0 Z " fill="#034485" transform="translate(805,449)"/>
<path d="M0 0 C0.99 0.495 0.99 0.495 2 1 C3.7404417 1.08449628 5.48409722 1.10723024 7.2265625 1.09765625 C8.7734375 1.09282227 8.7734375 1.09282227 10.3515625 1.08789062 C11.43179687 1.07951172 12.51203125 1.07113281 13.625 1.0625 C14.71296875 1.05798828 15.8009375 1.05347656 16.921875 1.04882812 C19.61463789 1.03701776 22.30729188 1.02054778 25 1 C25 1.33 25 1.66 25 2 C17.74 2 10.48 2 3 2 C3 8.93 3 15.86 3 23 C9.07293654 22.92112751 9.07293654 22.92112751 15.14550781 22.81982422 C15.90702148 22.8148291 16.66853516 22.80983398 17.453125 22.8046875 C18.22817383 22.79421387 19.00322266 22.78374023 19.80175781 22.77294922 C22 23 22 23 26 25 C17.42 25 8.84 25 0 25 C0 16.75 0 8.5 0 0 Z " fill="#DAE1E6" transform="translate(422,511)"/>
<path d="M0 0 C2.52304913 2.52304913 2.26719182 3.41331326 2.31884766 6.90869141 C2.33871735 7.92959869 2.35858704 8.95050598 2.37905884 10.00234985 C2.39638565 11.66021011 2.39638565 11.66021011 2.4140625 13.3515625 C2.43342865 14.4807309 2.4527948 15.60989929 2.4727478 16.77328491 C2.53267069 20.39044572 2.57898002 24.00763813 2.625 27.625 C2.66316805 30.07293078 2.70221908 32.52084796 2.7421875 34.96875 C2.83838259 40.97904624 2.92339265 46.98942393 3 53 C5.31 52.01 7.62 51.02 10 50 C10 50.66 10 51.32 10 52 C8.71086513 52.67154933 7.41859796 53.33708859 6.125 54 C5.40570313 54.37125 4.68640625 54.7425 3.9453125 55.125 C2 56 2 56 0 56 C0 37.52 0 19.04 0 0 Z " fill="#003379" transform="translate(325,385)"/>
<path d="M0 0 C5.2903125 -0.061875 5.2903125 -0.061875 10.6875 -0.125 C11.79053467 -0.14320801 12.89356934 -0.16141602 14.0300293 -0.18017578 C14.91086182 -0.1851709 15.79169434 -0.19016602 16.69921875 -0.1953125 C17.59471436 -0.20578613 18.49020996 -0.21625977 19.4128418 -0.22705078 C22.26168257 0.02296544 24.40894543 0.81983488 27 2 C23.88248002 2.93714922 21.25850091 3.05686895 18.015625 2.87890625 C17.17290039 2.83580322 16.33017578 2.7927002 15.46191406 2.74829102 C14.40198242 2.68697998 13.34205078 2.62566895 12.25 2.5625 C8.8675 2.376875 5.485 2.19125 2 2 C1.67 9.59 1.34 17.18 1 25 C7.93 25 14.86 25 22 25 C22 25.33 22 25.66 22 26 C14.74 26 7.48 26 0 26 C0 17.42 0 8.84 0 0 Z " fill="#C1D3DE" transform="translate(422,469)"/>
<path d="M0 0 C1.77160995 0.03014442 1.77160995 0.03014442 3.57901001 0.06089783 C5.49935562 0.10145042 5.49935562 0.10145042 7.45849609 0.14282227 C8.76523285 0.16643326 10.0719696 0.19004425 11.41830444 0.21437073 C14.89377484 0.27722616 18.36909543 0.34628856 21.84442139 0.41662598 C25.39018934 0.48729632 28.93606358 0.55212105 32.48193359 0.61743164 C39.44038245 0.74646272 46.39869058 0.88204862 53.35693359 1.02172852 C53.35693359 1.35172852 53.35693359 1.68172852 53.35693359 2.02172852 C52.62221832 2.02981537 51.88750305 2.03790222 51.13052368 2.04623413 C44.2144129 2.12409944 37.29847813 2.21136546 30.38262367 2.3092556 C26.82689966 2.35925156 23.27120584 2.40558096 19.71533203 2.44360352 C15.6295272 2.48745185 11.54408779 2.54711657 7.45849609 2.60766602 C6.17826569 2.61921722 4.89803528 2.63076843 3.57901001 2.64266968 C2.39793671 2.66253937 1.2168634 2.68240906 0 2.70288086 C-1.04368744 2.71620453 -2.08737488 2.7295282 -3.16268921 2.74325562 C-5.81737603 2.7801711 -5.81737603 2.7801711 -7.64306641 5.02172852 C-8.30306641 5.02172852 -8.96306641 5.02172852 -9.64306641 5.02172852 C-7.32424953 -0.11279456 -5.46934588 -0.10473216 0 0 Z " fill="#003077" transform="translate(199.64306640625,442.978271484375)"/>
<path d="M0 0 C1.18613892 0.00785522 1.18613892 0.00785522 2.39624023 0.01586914 C3.67724609 0.02070313 3.67724609 0.02070313 4.98413086 0.02563477 C5.88196289 0.03401367 6.77979492 0.04239258 7.70483398 0.05102539 C8.6065332 0.05553711 9.50823242 0.06004883 10.43725586 0.06469727 C12.67234712 0.07652315 14.90730835 0.09300319 17.14233398 0.11352539 C17.47233398 2.42352539 17.80233398 4.73352539 18.14233398 7.11352539 C16.14233398 4.11352539 16.14233398 4.11352539 16.14233398 2.11352539 C13.34911181 2.20025285 10.55920871 2.30707896 7.76733398 2.42602539 C6.97327148 2.44858398 6.17920898 2.47114258 5.36108398 2.49438477 C3.28017818 2.59137614 1.20792067 2.84347364 -0.85766602 3.11352539 C-1.51766602 4.10352539 -2.17766602 5.09352539 -2.85766602 6.11352539 C-2.90038702 4.44740634 -2.89830434 2.77969654 -2.85766602 1.11352539 C-1.85766602 0.11352539 -1.85766602 0.11352539 0 0 Z " fill="#164584" transform="translate(720.857666015625,479.886474609375)"/>
<path d="M0 0 C0.33 0 0.66 0 1 0 C1 5.61 1 11.22 1 17 C-2.21341369 18.60670684 -5.62958968 17.82510855 -9.125 17.5625 C-9.87910156 17.51029297 -10.63320313 17.45808594 -11.41015625 17.40429688 C-13.2737937 17.27454996 -15.13694996 17.13792512 -17 17 C-17 16.67 -17 16.34 -17 16 C-11.72 16 -6.44 16 -1 16 C-1.020625 13.73125 -1.04125 11.4625 -1.0625 9.125 C-1.125 2.25 -1.125 2.25 0 0 Z " fill="#D9E0E7" transform="translate(869,480)"/>
<path d="M0 0 C0.33 0.66 0.66 1.32 1 2 C0.67 2.66 0.34 3.32 0 4 C0.66 4 1.32 4 2 4 C2.33 4.99 2.66 5.98 3 7 C-2.75 12 -2.75 12 -5 12 C-4.52389341 7.00088076 -2.96837781 4.02167317 0 0 Z " fill="#0A397D" transform="translate(205,652)"/>
<path d="M0 0 C0.66 0.33 1.32 0.66 2 1 C2.55353075 15.78132118 2.55353075 15.78132118 -1 22 C-1.66 21.67 -2.32 21.34 -3 21 C-2.67 19.68 -2.34 18.36 -2 17 C-1.34 17 -0.68 17 0 17 C0 11.39 0 5.78 0 0 Z " fill="#093277" transform="translate(473,471)"/>
<path d="M0 0 C0 2 0 4 0 6 C-2.62527189 6.05382106 -5.24944713 6.09358313 -7.875 6.125 C-8.62136719 6.14175781 -9.36773437 6.15851563 -10.13671875 6.17578125 C-12.09194461 6.1933959 -14.04742021 6.10320189 -16 6 C-16.66 5.34 -17.32 4.68 -18 4 C-17.27554687 4.03480469 -16.55109375 4.06960938 -15.8046875 4.10546875 C-10.0714551 4.26599926 -5.95676297 4.26102827 -1 1 C-0.67 0.67 -0.34 0.34 0 0 Z " fill="#F3F6F6" transform="translate(511,466)"/>
<path d="M0 0 C0.33 0.66 0.66 1.32 1 2 C8.59 2 16.18 2 24 2 C24 2.33 24 2.66 24 3 C16.08 3.33 8.16 3.66 0 4 C-0.33 3.34 -0.66 2.68 -1 2 C-0.67 1.34 -0.34 0.68 0 0 Z " fill="#C6D4DE" transform="translate(692,552)"/>
<path d="M0 0 C0.99 0.33 1.98 0.66 3 1 C0.31941902 4.57410797 -2.42589203 7.31941902 -6 10 C-4.34832443 6.4213696 -2.21713508 3.25179812 0 0 Z " fill="#09357A" transform="translate(264,572)"/>
<path d="M0 0 C1.9453125 -0.29296875 1.9453125 -0.29296875 4.125 -0.1875 C5.40375 -0.125625 6.6825 -0.06375 8 0 C7.67 1.65 7.34 3.3 7 5 C6.67 4.34 6.34 3.68 6 3 C3.36 3 0.72 3 -2 3 C-1.34 2.01 -0.68 1.02 0 0 Z " fill="#256599" transform="translate(605,523)"/>
<path d="M0 0 C0.96070434 2.88211302 1.10581883 4.69850044 1.0625 7.6875 C1.05347656 8.49574219 1.04445313 9.30398438 1.03515625 10.13671875 C1.02355469 10.75160156 1.01195312 11.36648438 1 12 C0.34 12 -0.32 12 -1 12 C-2.11658501 7.31034294 -1.80619523 4.46236469 0 0 Z " fill="#DDE6EA" transform="translate(752,517)"/>
<path d="M0 0 C1.85776765 3.13498292 2.20140476 5.37471432 2 9 C1.34 8.34 0.68 7.68 0 7 C-0.66 7.99 -1.32 8.98 -2 10 C-1.125 2.25 -1.125 2.25 0 0 Z " fill="#EEF3F6" transform="translate(728,507)"/>
<path d="M0 0 C2.2477975 2.05233685 3.0022242 3.00667261 4 6 C4.03954234 8.33299825 4.04401732 10.66708189 4 13 C0.25474201 9.25474201 0.31090051 5.01729091 0 0 Z " fill="#073276" transform="translate(335,374)"/>
<path d="M0 0 C-0.3125 1.875 -0.3125 1.875 -1 4 C-1.99 4.66 -2.98 5.32 -4 6 C-4.33 4.35 -4.66 2.7 -5 1 C-3 0 -3 0 0 0 Z " fill="#0A3779" transform="translate(387,422)"/>
<path d="M0 0 C1.258125 -0.020625 2.51625 -0.04125 3.8125 -0.0625 C4.52019531 -0.07410156 5.22789062 -0.08570313 5.95703125 -0.09765625 C8 0 8 0 11 1 C11 1.66 11 2.32 11 3 C9.35 3 7.7 3 6 3 C6 2.34 6 1.68 6 1 C4.02 1 2.04 1 0 1 C0 0.67 0 0.34 0 0 Z " fill="#08337B" transform="translate(449,454)"/>
<path d="M0 0 C3.53647504 1.67517239 4.7911563 2.49280817 6.3125 6.1875 C6.539375 7.115625 6.76625 8.04375 7 9 C4.03595495 6.19195732 1.55500981 3.81684226 0 0 Z " fill="#062B75" transform="translate(202,521)"/>
</svg>
